/* XPM */
static char *result[] = {
/* columns rows colors chars-per-pixel */
"128 101 42 1 ",
"  c #DCDCD8",
". c #DAD9D5",
"X c #DFDFDB",
"o c #A9A9A4",
"O c #A7A7A3",
"+ c #AAABA6",
"@ c #030306",
"# c #A5A5A0",
"$ c #5E0604",
"% c #090C19",
"& c #D6D6D2",
"* c #A1A19D",
"= c #ADADA9",
"- c #E3E3DF",
"; c #BDBDB9",
": c #2C2D36",
"> c #B6B7B2",
", c #C4C4BF",
"< c #D0D0CC",
"1 c #CACAC5",
"2 c #B2B2AD",
"3 c #171821",
"4 c #23252E",
"5 c #42250F",
"6 c #750706",
"7 c #5D371C",
"8 c #7D4A2C",
"9 c #985F31",
"0 c #4A4947",
"q c #A66C53",
"w c #3A0A05",
"e c #A29791",
"r c #C78257",
"t c #E09669",
"y c #F5AA79",
"u c #9A837F",
"i c #C88522",
"p c #EAA22E",
"a c #EDEFEB",
"s c #696561",
"d c #FEBD84",
"f c #862724",
/* pixels */
"oOO#2    . 2#oOoO2X  ..X;Ooooo#&   . ,*OOo+o&X  . 1*O+++*,X.   <Oo+++*;X   ..=#o++*2     X>#OOoO2X    X;*oooO+&     ,#+++oO< ...",
"oOo#2X   . 2*OOOO2-X .. ;OoOOO#<   . ,*OOOoo&X .  1*Oo+o*,X..  <Oo++o*,-     2#Oo+#2     X>#OOOO>X    X;*Oooo=&   . ,#+++oO< ...",
"O#O#>-XXX  2*####2-XXX X;#O###*&XXX X,*###OO.-XXXX<*###O*1-  XX&#OO#O*,-X  XX2*OOo#>X XXXX>*##O#2-XXX X;*O#OO+.X X X,*OooO#<X   ",
"+++=;X.. .&>#OOOo2  ... ;OoOOoO<.....,#oOO++<X....1OOOO+#,X&&& <++oOoO, .&& .=#oo=+>......>Ooo++>....&.;#+o++2<&&&&.,o+++=+<.&&&",
". .X&+++++*,.&&& &+====O,.&&&&.=+=+=O; &&&..2o===o2.&&&& >O=Oo+=&.&&& ;O=o+=+<&&&.X1#+o++O1 .&. <o++o+#,X... .+Oooo#;X.... 2#OOO",
"   X&o+Oo+O1X....&#o+o+O,X.   X2ooO+O;X   . =#o++O2   . ->#+OOo=. .  X;#+o++o<X. .-<#++o+O1X  . <o++o+O,X..  .+OoooO;X     2OOoo",
".  X&+oOO++<X..&.<#ooO+O, .   X2oOO+o;X. ...+#oo+o>    .X;#ooOO=.    X;#++++O<X...X<o+oOo#1  .. <Oooo+O,X. . .+Ooo+O;X ... 2O+++",
".  X&++##oo<X. ..1*oOOo#, .   X2oOOoo,X   ..+#OO+o>X   .X>*ooO#+.    X;*ooooO<X  .X<ooOOO#1 ...X<OoOOoO,X. . &+OoOoO;X... .2o==+",
".   <O+O#oo<X....1#oOOoO, . ..X2ooO+o;-   .&=#OOo+;X    X;*oooO=&    X;#+oooo< . .X<ooooo#1..   <O+oO+O,X. . &+OoooO; ...  2o===",
"   X<*O#*OO&- X X<*##*#*,- XXX-=OO#O#;-XXXXX+*#*##>-XXX-a;**###= XXXX-,*O##Oo&- XX-&*####*<-XXXX<#O##O*,-XX X +#O#O*;-   XX2#OOo",
",;;;;;;,;,,11,,,,,;;;;;;,,,,,,,,;,;;,,1,,,,,;;;;;;,,,,,11,;;;;,,,,,,,,,,;;;,,,,,,11,;;;,;;,,,,,,,,,,,;;,,,,,,,,;,;;;,,,,,,,,,,,,",
"#***o  XX -;#OOo#=X XX -;*O###*&XXX -1#O##O*&XXX X<*###o*1X.  X.O####*,-   XX=*##o*>X.XX ->*##O#2-XXX -;*##O#o XXX -1*##O##&X   ",
"+Oo#=... . ;OoOoo2    . ;O+#Oo#<.. ..,OoOo=+&X  . <OOooo#1X... &+Ooo+#,X...  2Ooo+#> .... ;o+o+O2X   . ;#oO++=. ... 1O+=++o< ...",
"oOo#=..  ..>#O#Oo2X   .X,#O##O#<   . ,*O#Oo+&X  . 1##oOO*,X    &o#Ooo*;X     2#OOO*2 .   X;OoooO>X  .. ;*OOoo=. ... ,#o+o+O< ...",
"oo+#+..  ..2#OOOo2X   .X;#oOOO#<   . ,#O#o++&X  . 1*#oOO*,X  . &oOOOO*;X X   2#OOO*2 .   X;OoOoO2X  .. ;*oOoo=. ... ,#o+oo#< ...",
"+++#=... ..2#oOoo2X  ..X,#oOOoO& . . ,#+Oo++&X    1##oOo*,X    &oOOOo*,X     =#OOo#2 . . X;O+ooO2X ... ;*oOoO=.X .. ,#o+ooO< ...",
"oO#*2X ....2*O###=X ...X;*OOOO#& ... ,*O##oO&X.  X<***#O*,X   X&##**O*,X. XXX+**#O*>  XX X>*##O*=X   .X;*####+.X   X,*#####<X   ",
"&<<&<22==2+,&&&&&1=2==22,<<&&&<2==+=+;&&&<&&>===22><<<<&&;===22><<<<&.;+==2221<<&&&1==222=1&<&<&1=22=2=,&<<<<<2=222=;&<<<<<>=222",
"X  -.OO*#O*1---X-&*O##O#1X XXXX=##*O*>-XXXX-=##O+O>XXXXX-;*##OO= XXX -,*##OoO&XXX -<*O##O*1-XX X<#O##O#,-XX X.o#O#O#;X XXXX2#OOO",
"&&.X&o+OOoO<X X  <#oOOoo, . .. 2oOOoO; . ...=#oo+O>    .X;#Oo+o=&.  .X;O+oooo<X...X<OooOo#1 ... <OoOOoO,X... &+Ooo+O; .....2oooo",
"...X&OoOOoO<- X. <#oOooO,X.    2oO#O#;X.  ..+#ooo#2    .X;#oo+Oo&.   X;#+oOO#<X  .X<Ooooo#1 ... <#OOO+O,X... &+Ooo+O;X ... 2OoOo",
"&..X<#+oo+O<X  . <#o+++O, ...  =ooooO;X.  ..+O+ooO2   ..X>#o+oOO&    X;#+ooOO< ...X<Ooooo#1 ... <#ooo+O,X... &+O+oo#;X.... 2Oooo",
".  -&*OooO*<-X  X&*#ooo#,X    X+#ooo*;-   XX+*O#OO2X  XX->*OoO##.XXXX-;*O#OOO&X   -<*#OOO*1X   X<*#OOO*,-   X.o#OOO*;-    X2#O#O",
"1<1<1>>>;>2,<111<122>;>>,11,11<>>>>>2;<111<<>222>>>111<<&;2>>>2>1<11<<;222>>>,11<<<12>>>>2,<111<1>>>>>2,<111<1>>>>>2;<1111<>2>2>",
"+oO*>-  XX->*#*#O=-XXXX-;*#**#*&XXXX-1*#*#o*<X  X-<***#o*1-   X.O###o#,- XXXX+*#Oo*>X XXXX>*##O#2XXX  X;*OOo#o.XXX -1*#OOO#&X   ",
"=+o#>X.    >OoOoo2X    X,Oo#Oo#&    X1#oOo+O< .   <#Oo++#1X... &=oOo+#,-     =#oo+#>X    X;OOooO2XX   X;*o++o=.   .X,#o++oO<X...",
"=+o#2X.    >#oOoo2XX   X,#oOOO#&    X1#ooOo#<X  . 1*Oooo*,X.. X&+oooo*,-     2#ooO*>X    X;#OOoO>XX   X;*+++O=.  ..X,#oooO#<X...",
"+oo#2 .  . 2#oooO2XX  .X;#oOoo#& ...X,*oooO*<X  ..1#OoOO*,X    <oOoOO*,-  .. 2#oOO*> .  . ;OOOOO>XX  .X;*o++O=. ... ,#OooO#< ...",
"oo+#2..  . >#o++#=   .. ;#oooO#< .   ,*o+oO#< . . <OOoOo#, .   <ooooo*,X. ...2#OOo#> .  . ;OooOO>X   .X;#oo+o+& . . ,#ooOO#< ...",
"*##*+XXXX ->*OOO*oXX XX-;*#OO**&XXXXX,*O###*&- XX-&****#*1- XXX&#***#*,- XXXX+**#O*>- XX X>*###*2--XXX-;*##O*o.XXX X1*###**<-XXX",
"11,,;>;;>>;111<11,>>2>>>,11111,>>>2>>;111111;>>>;;;,,,,11;>>>>>;11,,11;>>>;;;,,,111,>>>>>>,11111,>>>>>>;,,1111;>>>>>;1,1111;>>>>",
"XX X<*oO*##&-X-X-&*#**##1-XXXXX+#**#*;-XXX--=**#oO2XX XX->*##**oX-XXX-;***###&X XX-<*##*#*1-XXX-<*###O*,-   X.O*###*;-XXXXX=*###",
"..& <O=oOoo<X... <#ooo++1X.... 2OoOoO;X....X2#o+=o2 ....X;#++oO=& ...X;OoOoo+&X...X<Ooooo#1 ... <O+++=+,X.&&.&+Oo++O; ...  2o++o",
". .X&#OOOoO<X... <*Ooo+O,X...  =#ooo#> .  . =#ooo#2   ..X;*OoO#o&  ..X;#oOOOo&X  .X1#OOOO#1 ....<#ooo+o,X... &+#o+o#; ...  2O+oo",
".  X&#OOo+O<X... <*Oo=+#,X... X=#o++#> .  ..+#oOo#2    .X;#OOo#O&.    >#+oOOo&X  .X<#Oooo#1 . . <#+o++O,X..&.&+#ooo#;  .   2Oooo",
" X -.###O+#1X.. X<*#ooO*,X... X=#oo+#> .   .+#o###2     -;*##OOo&  X X>*oOO#O&X  .-<*#OOO*1     <#Oooo#,X... .+#OOO*;X     2#OOO",
"&..X.=+o==o1&<&&.<+=22=O,.&<<&.2===2=;.&<&&&2==o==2&&&&& ;o+o=22<&&&&.;O=====<.&&&.1+===2+1.&&&&1====2+,.&&&&&2====+;.&&&&&>====",
"=22=>X.&...>#OO++>X.  . ,+=Oo==& .&.X1ooOo=+< &&..1Ooo==O, &&. &+oo+=o1 &&. .=O++=O> ....X>Oo++O2 .  . ;*++++=&.... 1O++=++<.&&&",
"=+=O2 . .. 2#oOOO>-  ..X,OoOOoO& ...X1OO#Ooo&X    <#OOO+*,X .. &+o##o#1-..   =#OOo#>X    X>#OOo#2X    X;*OOoO=. ...X1#OoooO< ...",
"oo+O2    . 2#ooOO>-   .X,#oooO#< ...X1Oooooo&X    <#OOoo*,X    &=+O#OO1-.    =#ooo#>X    X>OOOoO2X ...X;*oo+O=. ...X,#o+ooO< .&.",
"oOo#2X     2*o+o#>- .. X;#O++#*< .. X1#++oo#<     <#OOoo*,X X  &+oOOO#1-    .=#OOo#>X    X>#OOoO2X  ..X;*oo+O=. ...X,#o++O#< ..&",
"+ooO2X. ...2#+==o>-.&..X;#+++O*<.&..X,#==+o#<   ..1Oooo+*,X    <ooooo#,X. ...=#Oo+#> ...  >OoooO2X ... ;*+++o=&....X,O+++oO<.&&&",
"#***=-XXXX-=e*#O*2--XXX-;*###**&X XX-,*####*<-----<*#**#*,-XX--&***##*,-X-XXX+**##*>-XX---2*###*=--XXX-;*##O#o.XXXX-1*####*<-X  ",
";;>>>,1,,11;>>;;;;,,,,,,,;;;;;;,,,;,,,>;;;;;,11111,;;>;;;,,,,11,>>;;;;,,,1,,,;>;;;;;,1,,,,;;;;;;;,,,,,,,;;;;;;,,,,,,,;;;;;;,,,,,",
"XXXX<*#**O#&-XX--&*##***1-XXXX-=##***>-XXX--=*O###>--XXXa;*#*##+ XX-X-,*#O###.-XXX-<*####*<-----<*##*#*,-XXX- O*#*#*;-XXXXX=*###",
"... 1*oOo=+<X .. <*o+oOO1X .&.X2o+OO#>  .. X>o+OOo>   ..-;o+OOo=.   .X;#+++o+&X...-1O++++o1    X<O+o+oO,X.&&.&=o+++#; .....2o+++",
". . 1*OOo+o<- .. <*Oooo#,- .. X2OooO*>X.   X2OO#OO2    .X;OoOO#+.   .X;*oo+oo&X...X1#+++o#1X   X<#o++o#,X.&&.&+o+++#;X... .2Ooo+",
". .X<*O#o+o<- ...<*Oo+oO,X... X=Oo+o*> .   X2#OOOO2    .X>#+oOOo&   .X;#+Oooo&X...-1#o+oo#1   . 1#+++o#,X.&&.&+o++o#> ... .2Oooo",
"&.. <OoO+=+<X... <*#O+=+1X&&&. =#o+=#> .   X2#OO+O2.   .X>#oooOo&   .X;O+Ooo+& ...X1#++oo#1 ... 1#+++oO, .&&.&=o+++#> .....2Oooo",
"..&X&O+o++o<.&. -<***O=o, &&&. +*#+=o;X..  X2*##+O=...  ->*Oo+o+&  ..X;*o#OoO< .&&X1*oooo#1 ... <#o+o+#, .&&..+O+++#;X.... 2#OOO",
"2==2;&&&&&<>o=2>2>111<&&;+2=++o1<1<&.12==2221<<<&<,===2>2,<1<<&<2==22+;<<<<<<2====+>&<<<<&>===2=><<<&<&;+====2<<<<<&,+=2=221<<<<",
"#*##>-XXX  2*#Oo#=XXX  X;*o#*#*<X  X-<##*#O#<X XXX<*###o*1X.  X =O##O*,- XXX +*#OO*>-   X->#OOO#2-XXXX-;*#OO#o X X -1*#O###&X ..",
"O#O#>-   ..2#o++O2XX .&.;#+oO#*< ...-<ooOOOO< ..  1#oOO+#1X&.. .=+ooo*,X.   .=#oo+#> .... ;Ooo+O>X    X;#oo+O+. ... 1#ooooo< .&&",
"##OO>-   ..2#ooo#2-X ...>*ooo#*< ...-1OoOO##< . . <O++oo*, &&.X.=+oOO*,X.   .=#Oo+#> .... >Ooo+O>- ...X;*oo+O=. ... 1#oOOoo<X...",
"OOoO>X.....>O+oO#2X ....;*oo+o*< ..&X1o+OOOO<X..& <o++oo*, &&& &=++oO*,X.  .&=Oooo#> .... >#+o+O>- ... ;*o++o=&.... 1Oooooo< . .",
"OOo#2X    ->#O##*+XX XX-;*##Oo#&X  .X1#oO###&-   X<#OOOO*,X  . &OoOOO*,- XX .+####*2XXX  X2*OOO#>-X X X>e###*o XXXX-1*#####&XXXX",
">>>2>11111<;2=+===111<<&;===>;>111111;2>>2221<<<1<1222>2o;1111,,+=2=22;1,111122222=><1111<;2>>>>;<11111>o2===2<<<<<<,=222>>1<111",
"--X-<e***O>aaa-.X1e**Oo#,X&.X--+****e2XX-X X+*###*2X.  Xa12;>>=2-aaaaa<=2=22>aaaaaa.*#####<-XX--<*####*;X..& &Oo+oO*;X   X O****",
". . 1*OO=esssse- 1*Oo+=O, .&& X2oo++#> .  ..=O+o++2.&&&;ssssss00sssssss000000ssssssu=o+o==<X .. 1O+++=O,X..&.<+====O;  ...&=#ooo",
"...X<*O#>u@@@@0-.1*#oo+#,X..&.X2oo+o#> ..  &+#O#Oo>X&< *@@@@@@@@@@@@@@@@@@@%@@@@@@@:>+==2>&X... 1#+o+=o,X..&.<oO++=O,- .. .=#o+o",
"...X<#OO>u@78i9%#&*O+++#,X ... =o+oo#> --aa->+===;*:4444@3:44443@@@@@@@@@@@@@4444443344444>a-X. 1#=222=1-XX--X+o;s7000;a. .2Oooo",
"..& <OoO2u@79p9@e&*ooo+#,X.....o#oOO*2 2o22=uuuuues@@@@@@3443444%%@%%%%%%%%%%444444%@@@@%@u2#;&.1#eeeee+11,>>>eue0w555e,&. 2OooO",
".&& <#+*=s@79p9@#-#o#*##,X.. ..22;>>2,a:@@@@@@@@@@@33%@@@@@@@@@@::4:0:0:0:0:0@@@@@@@@@@:::@@@sa.1;q55558rq975598w5788957-- >oooO",
"<<1<1>;>;u@79pi90s,,>>>;1<<<<<<s0sss0ss3@333333%%33%%%%@@@@33334:::0000000000:444444%33333%%@:s;>088rqqrttqw7978r8577878se<>2222",
"1111,>;>,u@79ppd5@11;;>>;,,;;;;%@@@@@@@@%4::::44444@%3%%3@@:44::000000000000000000003:4@@@333@@*ow8qydyytyr@9t58-95578885s<22222",
"111<*3333%@79ipp9:433%%33443333%%%4::44444::333%@@@@34444%@::00000:3@@@@@%%%@@@@@@@30000003@@@@58ryd57dq8ydtrryyydy777785qX>2222",
"111&*@%587@79iip9775355@@%%%@@@%3%3444444333%%%@@@%%34433%@34::::::3%%%333333%333%%4::::0:3%53357ty.45dq7ydyttdddyt757787s*=2222",
"<<1.O@79dr@79i9877di5pp@3:::%33%%3%33333%@@@@@@@%3333343@@@@@@@@@@@4:00000000000000:@@@@@@:0yq857ryd45y97rtdddddd8w5588887we>=22",
">>>,e@79ppq75iiii998799@%333%%%%@@%@@%%%%%%%3344444333%%%33333333344::::::::::4:4:::433@@%@3trq77ttd33trqttrtyrrdr95577785@2&<<<",
"o+o>u@79pdp7@iiipi57877@%%%%%%%@@@@@@@@@@33%4::::44334@@34:::::::::::::4:4:4:444444:::3@@%@%ttt77rtd45rrttt9rt8qdtr5555585@;- XX",
"+++;e@79ppp7@ipppp89i5@@@@@@@@@3%%3:44::::4444::::43%%@@33%:::444:::::::44%4:::::::::3@@@444@8t77trrqryyyyr@9t58drrtqw7853@;X...",
"Ooo;e@79ppp7%99999789%@@%%@@@@%%334::::::::::4::4:43%@@@3%%::4:::44:::::44%34::::::::%@@%444@7t8899qrtyyyyr@8t58dtrq857853@;-...",
"OoO>e@79iii85@@@@@@@@@@@%3%%%33%3::::::::::::4:43:43%@@@%%%::::4:3@4:::::4%%%::::::::%@4444:@8trqw7qydydyyu@8tw8dtrw557853@>X...",
"OOO>e@79ipiiq8738937r5@33433%3333:::4::::::4:4333::3%@@@%34:4%44%%4::::::4%%333334:43%@@@@4:3:5qqw58qqtyddtqqq9rdq78757753@;-...",
"+oO2e@79iiipp987qi59d5@::44433%33::::444:::::4%33::3%@@@%3443@44@%:4::4444%33%@%%343%%@@@@4::3@9qw5789rtddyyr9tty8w885557w@2.<<<",
"&<1-2@7989ppp59p75ppy5@:444::3%33%4::4%%34:::433343%%%@@%%@@%43%::4%%%%%%%%%%@@@@@@%%%%33%@%444@3r8@8qttttttttyqw555577773@*>#OO",
"  &es@7989piq99i87q99:3:444::433%%3333%%34::44%3%3%%%%@@@@%@%3%%443%%%%%%@%@%@@%%%%333334333334@%877789rt99qq9q855w555775ww8s*OO",
"-- $w@799ip97pi58975@:::4444:::3%%%@%%%%34::3%%%%@%%%%@@@@%%%%%%%%@%%%%%@@@@@@@34::::::%3::4@%:3%@7t5ww9d5@w55w575775577@w6$$+++",
"88f6w@%59ipiiiiiii97@33:3%44:43%%%%%%@%%%%%%%%%%%%@%@@@@@@@@@@%@%@@@@@@@%3444344::::444:3%44@@@33@3555579rrt855555755555@w6$$7u>",
"$666w@@%9ippppippi97@%%43@3443%%%%%@%%%%%%%%%%%%%@%@%3333@@@@%%%%%@@@@@%33::::::444::4::4%33%@@%3@@@55557rrt855555575555@w6$$$9o",
"6666w@589ippip988775@%%%%%%%%%%%%%%%%%%%%%%%%%%%%@@@8yrrr5@4::43:::444::33::::4:3%4:4::4:4@@3%%@@@@@@3555w555555555555%@$$$$$$$$",
"$666$@5899iippi87774@%%%%%%%%%%%%%@@@@@@@@@@@@%%@357qttttq834::4:4::::::44::::433%4:::::::%@%%%@@wwwww33%355555555553%ww$$$$6$8q",
"$$$$$@78898ippi87785@@%%%%%%%%%%%%@@@@@@@@@@@@@@@7qdrqyyyyy3%:::33::4:::::%4::4%%3444:::::%@%%@@w66$6w@@@55555555557:@w$$$$$$$ea",
"uuuus@788999ii977785@@@@%%%%@@@@@@wwwwwwwwwwwww57rtqrtyyyyy3%34:3334::4:::4::44%%@@%44:3%3%%%@@w$$$$$$www@@%%%%%33@0uw$$$$6u2#,.",
"2=+>e377888888877575@@@@@@@@@@@@@@w$$$6$6$$$$$$f9yyqtyyyyyy3@%343%%4444:::4:443%%@@%444%%%%@%@@w$$$$$$$$$@@@@@@@@@%sef$$$5$;a-.&",
"O##O2-0@@@@@@@@@@@@w66666$$$$$$w$$6$$$$$$$$$$$$9dqryyyyttrr%@%34333%%@3::4@%%%%3%%%@@@%%%%@@@@$$$$$$$$$$$$$$$$$$$$quuu$$#**<.&&&",
"OOoO2-e0sss000005ww6f6f66$6$$$$$$$$$$$$$$$$$$$$8qrtdtrrrqrq%@%%3%%3%%%%433%%%%%3%@@@@@@@%@@@ww$$$$$$$$$$$$$$$$$$6qe===eqoOo< .&&",
"ooo#=&-aaaa122=,86f666666$$$$$$$$$$$6$$$$$$$$$$$5tddr888999%@%%%@@%%%%%@@@%%%%%%@@@@@@@@@@@@6$$$$$$$$$$$$$$$$$$9uuuaa& X1>*<X ..",
"<<<<,+222>2,1,,1;2eueuuueof$$$6$$$$$$$$$$$$$$$$$w5455333333@@@@@@@@@@@@@@@@@@@@@@@wwwwwwww$$$$$$$$$$$$$$$$$6$6uo>,,& --- <1>2222",
"XX X<*Ooo+#1X.  --222==O,X8ff6666$6$66$$$$$$$$$$$@@@@@@@@@@@@@@@@@@@@@@@@@@@@@@@@w$$$$$$$$$6$$$$$$$$$6666666ffO=o,.< a- .. =#OOO",
"..& <#o+o+#1X... &++o=2=1--. 8$6666666$$$$$$$$$$$$$$$$$$$$$w$$$$$$$$$$$$$$$$$$$$$$$$$$$$$$$$$6$$$66666666666u-o+>21 -a & .&=O++o",
"..& &Oo+o+#1X... .=++qqquuue u9999989f$6$$$6$$$$$$$$$$$$$$$$$$$$$$$$$$$$$$$$$$$$$$$$$$$$$$$66fqq9888888qqqqq2.oesqq*;u; ..&=O+++",
"...X&o++oo#1X... &=++f6$6$wf. -;>>>>;q$666666666$$$$$$$$$$$$$$$$$$$$$$$$$$$$$$$$$$$$$$$$$$666qa-.=2222=<aaa-X<2u$$$fq6e-&&&2Oo++",
"   -&#####*1-XXX-.O##f6666$f &.=#OOO*#====22uuef$66666$$$$$$$$$$$$$$$$$$$$$$$$$$$$$$$$$$6$u;21X 1******,X    &=q$666f6e-...=*OOO",
"1<<<1222222,<<<<&<2229f8ff6811<;;;;>2;<<&&&.,;,qf8ffff6$$$$$$$66$$$$$$$$$$$$$$$$6$66666fff= &&11,2>>>22,<<<<<1;eff88ffe&11<;>>>>",
"OOO*=X ...X>#+++O2  .XX-;*###OO --X X,*#####&-  X-<#O+f666666666$$$$$$$$$$$$$$$66666666&-X2*##O*2XXXX X;*oooO+.  XX-<o+####&-XXX",
"+==O2 &&&.X>o===+2...&&.>*Oo==+.X .& ,#+++++& .&&.1O#Oq99qqqqqqq66666$6$66666$$9899qqqu&..>O+++O2 ...&.;#++++=&.&&&.,#ooo++&X...",
"+++O2 ....X>o+++O=  ... ;#++=++.X..&.,O+++oo& ....<ooO2>2&a---a&6666666666666$f2=22,aa-.& >O++oO2X  .. ;#+++o=& ... 1Ooo+++&X. .",
"+++O2..... >o=+oO=  ..&.;O===++. &&& ,O=+++o& ....<+ooOo#,.&&&&&eeeeeuO,;;;,,ee###*> &&.. >O+++O2X ... ;#++++=& &.& 1O++++o&X...",
"+++O2.&...X>O++oO=  ... ;o===++. &&& ,#++++O& ... <oOoOo#, ....&=+++=+1------;+#OO#>X ... >O+++O2X.... ;#+o+o=& ..& 1O+++++&X. .",
"ooo#=..... >#ooO#=  ... ;#+o+++& &.. ,*ooo+O<X....<OOOOO*, &...<****#*; &.&&&=###O*>  ... 2#ooo#2X   . ;#oooO+& ..& 1#ooooo<X  ."
};
