/* XPM */
static char *result[] = {
/* columns rows colors chars-per-pixel */
"18 44 76 1 ",
"  c #17151B",
". c #1F171D",
"X c #2F1B1B",
"o c #2F2322",
"O c #3A302B",
"+ c #431B22",
"@ c #47362C",
"# c #4C332D",
"$ c #4D3A2F",
"% c #62282A",
"& c #5D4B3B",
"* c #5D4E3B",
"= c #794034",
"- c #6B513C",
"; c #6B4740",
": c #6A5545",
"> c #6B5B46",
", c #6D5D44",
"< c #685B49",
"1 c #7A574B",
"2 c #6E6342",
"3 c #786846",
"4 c #73604D",
"5 c #95473B",
"6 c #A3523F",
"7 c #A95439",
"8 c #924F40",
"9 c #8B6945",
"0 c #976149",
"q c #917148",
"w c #93744A",
"e c #9D7F4E",
"r c #837054",
"t c #B46043",
"y c #B5684E",
"u c #A76F59",
"i c #BE7757",
"p c #917665",
"a c #BA7F66",
"s c #B18341",
"d c #A38752",
"f c #B08E5C",
"g c #A99B5E",
"h c #938270",
"j c #B1A362",
"k c #B4AB65",
"l c #CB9B48",
"z c #C0886C",
"x c #CE9776",
"c c #D4B563",
"v c #D9BA65",
"b c #E9C876",
"n c #FFDF7E",
"m c #A89D80",
"M c #ACA492",
"N c #C69B8D",
"B c #D8A585",
"V c #C8B588",
"C c #E1BD9A",
"Z c #D0C094",
"A c #DACB9E",
"S c #F5DF9B",
"D c #FFFF93",
"F c #ECD0BB",
"G c #F5E4AA",
"H c #FAEFBF",
"J c #F0DECA",
"K c #FBF7CC",
"L c #F8F0D6",
"P c #FEFBD2",
"I c #FFFFD3",
"U c #FFFFDD",
"Y c #FFFEE5",
"T c #F4F1EA",
"R c #FFFFFE",
"E c None",
/* pixels */
"EEEEEEEEEEEEEEEEEE",
"EEEEEEEEEEEEEEEEEE",
"EEEEE8hMh:ppp;EEEE",
"EEEE&iJTF6CxuaEEEE",
"EEEE8xRTC5CC6x;EEE",
"EEEEtFRRx5CG6zuEEE",
"EEEEiTRRu%BH6yxEEE",
"EEE=xRRY0%xIytB#EE",
"EEE8BRRL5%zIi6B1EE",
"EEE7CRRJ%+aIa6xaEE",
"EEEtFRRF%+uIa6zxEE",
"EEEtJRRC%+uIa5zBEE",
"EE=tJRRN++uIz5aBEE",
"EE8yTRRN++uIz5aBXE",
"EE8yTRRz+.0Iz5iBXE",
"EE8yTRRz+.0Iz5iBXE",
"EE8yTRRa+.uIz5aBXE",
"EE0iLLLp++0Su5uf#E",
"EEwVUKP4O 2Dg-ev,E",
"EEwVUPI4@ 3Dg-ev,E",
"EEwVUPP4@ 2Dg-ev,E",
"EEwVUPI4@ 2Dg-ev,E",
"EEwVUPI3@ 2Dg-ev2E",
"EEwVUPP4@ 2Dg-ev2E",
"E&qVUPP4@ 2Dg-ev2E",
"E&qVUPP4@ 2Dg-ev2E",
"E&qZUPP4@ 2Dg-ev2E",
"E&wZUPP4@.2Dg-ev2E",
"E&wZUPP4$.2Dg-ev2E",
"E<wZUPP4$.2Dg-ev2E",
"E<wZUPP4$.2Dg-ev2E",
"E<wZUPP4$.2Dg-ev2E",
"E<wZUPP,$.2Dg-ev3E",
"E<wZUPK,$.2Dj-ev3E",
"E<qZUPK,$.2Dj-ec3E",
"E<qZUPK,$.2Dj-ec3E",
"E>qZUPK:$.2Dj-ec3E",
"E>qZUPK:$.2Dj-ec3E",
"E>wZUPK:$.2Dj-ec3E",
"E>qAUPK:$.2Dj-ec3E",
"E>qAUPK:$ 2Dj-ec3E",
"E>qAUPL-$ 2Dj-ec3E",
"E>9AYUP:$.2Dk-ec3E",
"E<gAHGA*O.*bd,dj,E",
"E<gAHGA*O.*bd,dj,E",
};
