/* XPM */
static char *result[] = {
/* columns rows colors chars-per-pixel */
"18 44 34 1 ",
"  c #070707",
". c gray9",
"X c gray10",
"o c #252525",
"O c #353535",
"+ c #3C3C3C",
"@ c gray26",
"# c #444444",
"$ c gray27",
"% c #4B4B4B",
"& c #505050",
"* c gray34",
"= c #585858",
"- c #5D5D5D",
"; c #646464",
": c #686868",
"> c #6F6F6F",
", c #767676",
"< c #7E7E7E",
"1 c #868686",
"2 c #8E8E8E",
"3 c #979797",
"4 c #A0A0A0",
"5 c #A9A9A9",
"6 c gray71",
"7 c #C1C1C1",
"8 c #C8C8C8",
"9 c gray85",
"0 c gray90",
"q c gray95",
"w c #F9F9F9",
"e c #FDFDFD",
"r c white",
"t c None",
/* pixels */
"tttttttttttttttttt",
"tttttttttttttttttt",
"ttttt$<3<&,>>$tttt",
"tttt@<000*85>2Xttt",
"tttt*5eq8&78*4$ttt",
"tttt:9rr4+70-2<ttt",
"tttt1wer,o5q;,4ttt",
"ttt%4eew-o4r>:6$tt",
"ttt*6req#.2r<-6=tt",
"ttt-8rr9o <r1*42tt",
"ttt;9rr8o ,r1*34tt",
"ttt>0rr6. ,r1&36tt",
"tt@>0rr4. >r2&26tt",
"tt$>qer3. :r2&16Xt",
"tt$,qer2. ;r2&16Xt",
"tt*,qer1. -r2&<6Xt",
"tt=,qer1. :r2&26Xt",
"tt-<qqw>..;0,#>2+t",
"tt>6rqw&. *r2#<8*t",
"tt>6rwe*o -r2#<8-t",
"tt>6rwe*o *r2#<8*t",
"tt>6rwe*o *r3#<8-t",
"tt>6rwe*o *r3#<8-t",
"tt>6rww&o *r3#<8-t",
"tt>6rww&o *r3#<8-t",
"t@>6rww&o *r3#<8-t",
"t@>6rww&o *r3#<8-t",
"t@>6rww&o *r3#<8-t",
"t@>6rww&o *r3#<8-t",
"t@>7rww&o *r3#<8-t",
"t@>7rww&o *r3#<8;t",
"t@>7rww&o *r3#<7;t",
"t@>7rww&o *r3#<7;t",
"t@>7rww&o *r3#<7;t",
"t@>7rww&o *r3#<7;t",
"t%>7rww#o *r3#<7;t",
"t%>7rwq#o *r3#<7;t",
"t%>7rwq#o *r4#<7;t",
"t%>8rwq#o *r4#<7;t",
"t%>8rwq#o *r4#<7;t",
"t%>8rwq#o *r4#<7;t",
"t%>8rwq#o *r4#<7;t",
"t%;8rrw#o -r4+<7:t",
"t:38q08O. #81&15&t"
};
